# xmcd CD database file generated by Grip 3.2.0
# 
# Track frame offsets:
#       150
#       28165
#       59068
#       76621
#       101231
#       120294
#       142535
#       159338
#       175043
# 
# Disc length: 2773 seconds
# 
# Revision: 2
# Processed by: cddbd v1.5.2PL0 Copyright (c) Steve Scherf et al.
# Submitted via: Grip 3.2.0
# 
DISCID=640ad309
DTITLE=Iron Maiden - Piece Of Mind
DYEAR=1983
DGENRE=Heavy Metal
TTITLE0=Where Eagles Dare
TTITLE1=Revelations
TTITLE2=Flight of Icarus
TTITLE3=Die With Your Boots On
TTITLE4=Trooper
TTITLE5=Still Life
TTITLE6=Quest For Fire
TTITLE7=Sun And Steel
TTITLE8=To Tame A Land
EXTD=
EXTT0=
EXTT1=
EXTT2=
EXTT3=
EXTT4=
EXTT5=
EXTT6=
EXTT7=
EXTT8=
PLAYORDER=
